HIERARCHY
ROOT root
{
	OFFSET 0.000000 0.000000 0.000000
	CHANNELS 6 Xposition Yposition Zposition Zrotation Yrotation Xrotation
	JOINT lhip
	{
		OFFSET 0.058581 -0.082280 -0.017664
		CHANNELS 3 Zrotation Yrotation Xrotation
		JOINT lknee
		{
			OFFSET 0.043451 -0.386469 0.008037
			CHANNELS 3 Zrotation Yrotation Xrotation
			JOINT lankle
			{
				OFFSET -0.014790 -0.426874 -0.037428
				CHANNELS 3 Zrotation Yrotation Xrotation
				JOINT ltoe
				{
					OFFSET 0.041054 -0.060286 0.122042
					CHANNELS 3 Zrotation Yrotation Xrotation
					End Site
					{
						OFFSET 0.000000 0.000000 0.000000
					}
				}
			}
		}
	}
	JOINT rhip
	{
		OFFSET -0.060310 -0.090513 -0.013543
		CHANNELS 3 Zrotation Yrotation Xrotation
		JOINT rknee
		{
			OFFSET -0.043257 -0.383688 -0.004843
			CHANNELS 3 Zrotation Yrotation Xrotation
			JOINT rankle
			{
				OFFSET 0.019056 -0.420046 -0.034562
				CHANNELS 3 Zrotation Yrotation Xrotation
				JOINT rtoe
				{
					OFFSET -0.034840 -0.062106 0.130323
					CHANNELS 3 Zrotation Yrotation Xrotation
					End Site
					{
						OFFSET 0.000000 0.000000 0.000000
					}
				}
			}
		}
	}
	JOINT lowerback
	{
		OFFSET 0.004439 0.124404 -0.038385
		CHANNELS 3 Zrotation Yrotation Xrotation
		JOINT upperback
		{
			OFFSET 0.004488 0.137956 0.026820
			CHANNELS 3 Zrotation Yrotation Xrotation
			JOINT chest
			{
				OFFSET -0.002265 0.056032 0.002855
				CHANNELS 3 Zrotation Yrotation Xrotation
				JOINT lowerneck
				{
					OFFSET -0.013390 0.211636 -0.033468
					CHANNELS 3 Zrotation Yrotation Xrotation
					JOINT upperneck
					{
						OFFSET 0.010113 0.088937 0.050410
						CHANNELS 3 Zrotation Yrotation Xrotation
						End Site
						{
							OFFSET 0.000000 0.000000 0.000000
						}
					}
				}
				JOINT lclavicle
				{
					OFFSET 0.071702 0.114000 -0.018898
					CHANNELS 3 Zrotation Yrotation Xrotation
					JOINT lshoulder
					{
						OFFSET 0.122921 0.045205 -0.019046
						CHANNELS 3 Zrotation Yrotation Xrotation
						JOINT lelbow
						{
							OFFSET 0.255332 -0.015649 -0.022946
							CHANNELS 3 Zrotation Yrotation Xrotation
							JOINT lwrist
							{
								OFFSET 0.265709 0.012698 -0.007375
								CHANNELS 3 Zrotation Yrotation Xrotation
								End Site
								{
									OFFSET 0.000000 0.000000 0.000000
								}
							}
						}
					}
				}
				JOINT rclavicle
				{
					OFFSET -0.082954 0.112472 -0.023707
					CHANNELS 3 Zrotation Yrotation Xrotation
					JOINT rshoulder
					{
						OFFSET -0.113228 0.046853 -0.008472
						CHANNELS 3 Zrotation Yrotation Xrotation
						JOINT relbow
						{
							OFFSET -0.260127 -0.014369 -0.031269
							CHANNELS 3 Zrotation Yrotation Xrotation
							JOINT rwrist
							{
								OFFSET -0.269108 0.006794 -0.006027
								CHANNELS 3 Zrotation Yrotation Xrotation
								End Site
								{
									OFFSET 0.000000 0.000000 0.000000
								}
							}
						}
					}
				}
			}
		}
	}
}
MOTION
Frames: 11
Frame Time: 0.033333
1.067030 0.807550 0.842396 -82.659733 4.539115 87.413805 7.972112 -5.801402 -37.049527 -4.708832 7.584576 69.215269 2.339893 28.800993 -38.818482 0.000000 -0.000000 0.000000 -3.472127 4.289396 -40.670253 5.819256 0.707103 61.518155 2.886639 -13.239074 -28.505996 0.000000 -0.000000 0.000000 -4.176488 5.339865 28.531067 1.663838 -1.765667 -4.873241 1.881572 0.009155 2.172809 4.358942 10.582843 -28.157821 5.620985 -6.232097 -13.284773 -9.659534 -21.855785 -6.786424 -10.748500 -10.866353 -3.095646 -1.025664 -18.245633 -6.476639 -6.094944 -4.400176 5.280163 12.606573 22.859466 -1.865886 12.900784 20.995922 -2.722433 -20.936535 39.611456 -13.459505 -2.010179 2.610997 -9.126354 
1.075723 0.802342 0.848182 -84.579346 4.354301 87.881140 7.726529 -6.617574 -37.107395 -4.226701 8.651261 67.226186 3.051122 30.246972 -37.607068 0.000000 -0.000000 0.000000 -4.352438 5.766008 -41.182305 6.871502 1.407307 59.214712 3.494050 -14.053949 -26.705654 0.000000 -0.000000 0.000000 -3.810023 5.180553 28.425200 1.860310 -1.900309 -3.862614 2.090669 -0.551306 1.809075 3.761937 11.153563 -29.323017 5.380432 -5.109262 -13.149846 -7.215013 -22.933211 -7.907814 -7.943376 -12.698192 -4.214657 -1.162346 -18.748270 -7.801177 -7.151804 -4.699213 5.161135 9.563530 22.579568 -2.844237 9.700544 19.710419 -4.236797 -22.617858 35.569132 -16.761368 -2.254343 1.619993 -9.895473 
1.078147 0.796277 0.860748 -86.107164 4.469610 87.387908 6.883442 -5.582604 -34.510868 -3.841599 8.339530 63.615717 3.582390 30.144346 -36.655183 0.000000 -0.000000 0.000000 -3.904085 6.194464 -38.969125 7.078908 3.087847 55.619611 4.051414 -13.883618 -24.934028 0.000000 -0.000000 0.000000 -3.488820 4.641271 28.182424 2.190013 -2.031297 -3.678867 2.486012 -0.821066 1.874626 3.726431 11.090901 -28.252550 4.980233 -4.030885 -12.654428 -4.895927 -22.630345 -9.027123 -7.983098 -14.301210 -4.942399 -0.941857 -18.590852 -6.732311 -9.309939 -3.925560 5.732701 6.750356 21.722871 -3.812035 8.738847 19.050349 -5.303204 -22.703162 32.507944 -16.553363 1.360264 0.134719 -8.570043 
1.077100 0.790022 0.878974 -87.584070 4.288098 87.295581 6.108054 -4.130709 -31.102638 -3.830604 8.479290 58.295352 4.041823 29.240666 -34.706358 0.000000 -0.000000 0.000000 -3.722141 5.675817 -36.318832 7.368947 4.818711 50.977337 4.260827 -13.200660 -22.606565 0.000000 -0.000000 0.000000 -3.452972 4.052241 26.348161 2.467653 -2.421402 -3.928604 2.774501 -1.168465 2.508977 3.628212 11.094782 -26.640507 4.479623 -2.984664 -11.672304 -3.359223 -21.523265 -9.062737 -9.008057 -14.315796 -4.739463 -2.496471 -18.931704 -4.623968 -11.325698 -4.565136 4.400282 4.725542 20.472984 -4.590486 9.425286 19.136063 -5.123311 -21.733686 30.885096 -14.716752 4.309224 -0.042862 -7.231885 
1.072574 0.784539 0.902564 -89.227053 4.200866 87.208272 5.687243 -2.106960 -26.472483 -4.512065 8.574826 51.112840 4.257161 28.122508 -32.165004 0.000000 -0.000000 0.000000 -3.671379 4.941420 -32.716025 7.510549 5.984848 44.927745 5.136957 -11.808274 -19.582186 0.000000 -0.000000 0.000000 -3.082719 3.370150 22.912461 2.546219 -2.787286 -3.048056 2.528160 -1.018614 2.908894 3.605051 11.625450 -25.033248 3.880180 -2.746559 -9.889892 -2.239971 -19.554284 -8.941796 -11.880989 -14.233805 -2.942090 -4.644009 -19.674243 0.114428 -12.367565 -4.910870 3.500791 3.524541 18.494708 -5.050210 11.313629 19.258825 -3.535070 -18.991296 31.758599 -9.790642 7.042768 0.738296 -6.634246 
1.063208 0.779080 0.931608 -91.502067 3.998265 86.001691 5.104905 0.555495 -19.153163 -5.569745 7.905173 41.972124 3.381111 26.703865 -28.925480 0.000000 -0.000000 0.000000 -3.307311 4.050535 -26.847876 6.614753 6.416641 37.918898 6.405993 -10.194383 -17.481444 0.000000 -0.000000 0.000000 -2.250742 2.805815 19.565149 1.956756 -2.608009 -1.870464 1.982608 -0.614372 2.779892 3.914735 11.285130 -21.149150 3.717978 -2.040772 -7.854095 -3.167143 -17.761682 -8.519783 -15.012786 -13.431470 -0.308642 -7.408872 -20.011307 4.026058 -12.779819 -4.576285 4.031206 4.101522 16.883282 -4.412627 13.503341 18.218939 -0.788426 -14.420860 34.988670 -4.370609 6.150613 0.810869 -5.296334 
1.051446 0.775651 0.962554 -94.188832 4.021151 84.359798 4.410081 4.184766 -11.304025 -4.684971 5.695380 33.232522 2.007406 22.941351 -23.172463 0.000000 -0.000000 0.000000 -1.680427 2.581992 -20.185514 4.329135 6.297588 32.234375 5.870933 -8.117859 -16.439892 0.000000 -0.000000 0.000000 -1.324263 2.532619 16.647135 1.372451 -2.012094 -1.621826 1.656428 -0.281513 2.305254 5.126779 9.428150 -14.367357 2.730776 -0.324272 -6.184339 -5.618552 -15.566218 -7.037183 -19.104378 -12.349369 0.716535 -8.863880 -19.110983 6.827435 -12.639928 -3.956651 5.887751 5.015116 15.097085 -4.019974 18.365827 18.226177 0.874743 -9.130257 35.906651 1.978661 11.143567 1.058156 -0.928533 
1.042055 0.773655 0.989309 -96.762009 3.513991 83.730554 2.944476 4.193383 -6.386980 -3.017078 3.239610 27.220907 0.327127 21.450376 -17.089713 0.000000 -0.000000 0.000000 -0.608400 2.856574 -15.622170 2.357449 6.709589 29.826553 5.300507 -7.725425 -16.243996 0.000000 -0.000000 0.000000 -1.345220 2.520094 13.147145 1.136894 -1.163876 -1.088362 1.293510 0.206310 1.503244 5.777025 8.696789 -9.359263 2.615556 0.277498 -3.992639 -9.499370 -12.695509 -6.122235 -22.408961 -11.506102 2.548798 -8.590945 -18.117397 7.843698 -13.892744 -2.207278 6.935893 8.333199 12.862166 -3.057518 22.018676 17.461128 4.606454 -6.475574 36.247186 5.608064 13.013173 0.514651 0.413299 
1.036233 0.772883 1.007583 -98.111596 3.046509 83.725851 1.740549 2.063646 -4.589198 -2.336972 0.516093 24.106348 0.010010 20.276165 -14.418598 0.000000 -0.000000 0.000000 0.186613 2.800970 -12.127324 1.358270 7.194851 28.301503 5.009966 -7.819818 -16.226565 0.000000 -0.000000 0.000000 -1.622563 2.822681 9.851029 1.128264 -0.988014 0.066849 0.954869 0.650819 0.770254 6.247025 8.250041 -6.719355 2.749864 0.328392 -3.001268 -13.892793 -10.323355 -5.324649 -24.871371 -10.662765 3.670717 -6.898690 -17.195349 6.992275 -14.056034 -0.236754 6.805745 12.408422 10.373822 -2.044771 25.606216 15.344769 7.483904 -6.538526 36.526290 6.575111 14.386400 -0.225235 0.409189 
1.032730 0.773259 1.014169 -98.221897 2.698482 83.975556 1.009164 0.161999 -3.267632 -2.291658 -2.143643 19.139816 -1.025519 17.981472 -15.107511 0.000000 -0.000000 0.000000 0.751457 2.295493 -8.410830 0.710039 6.837050 24.394568 5.685625 -8.075382 -13.969317 0.000000 -0.000000 0.000000 -1.821203 2.994295 7.507317 0.746456 -1.199719 1.480939 0.642885 0.449454 -0.123816 6.667485 7.941295 -6.276613 2.871618 0.527679 -2.357961 -17.867807 -8.286011 -4.099393 -27.470097 -9.715369 3.771498 -3.660709 -16.469627 4.173696 -12.524138 -0.057091 6.320348 16.327846 8.352442 -1.015216 29.705085 12.730545 9.716373 -8.090514 35.647831 5.542090 13.935543 -0.029791 0.331706 
1.032563 0.773745 1.008041 -96.580199 2.905137 84.451529 0.951256 -1.562226 -3.578918 -1.547734 -3.902836 15.853845 -1.125996 15.899387 -16.012057 0.000000 -0.000000 0.000000 1.730253 0.916379 -4.683093 -0.389257 4.758733 17.782367 5.849314 -8.665097 -9.854195 0.000000 -0.000000 0.000000 -1.514959 2.499283 7.373588 0.579478 -1.975132 0.413670 0.445826 -0.151980 -0.456210 6.335294 7.160555 -7.379386 2.934218 0.786548 -0.645680 -20.686557 -6.024776 -2.879876 -31.864351 -9.238073 3.089705 0.378936 -15.315393 2.052992 -10.534340 -1.381714 5.246244 18.715411 6.329857 -0.180028 34.825670 9.592173 11.800348 -10.050506 34.914498 5.035517 11.851629 0.631544 -0.516173 
